<?xml version="1.0" standalone="no"?>
<!DOCTYPE svg PUBLIC "-//W3C//DTD SVG 20010904//EN"
 "http://www.w3.org/TR/2001/REC-SVG-20010904/DTD/svg10.dtd">
<svg version="1.0" xmlns="http://www.w3.org/2000/svg"
 width="200.000000pt" height="200.000000pt" viewBox="0 0 200.000000 200.000000"
 preserveAspectRatio="xMidYMid meet">

<g transform="translate(0.000000,200.000000) scale(0.100000,-0.100000)"
fill="#000000" stroke="none">
<path id="case" d="M1351 1903 c-87 -31 -161 -137 -161 -229 0 -69 48 -161 147 -282 l53
-65 0 -92 c0 -117 2 -119 132 -123 l98 -4 0 -119 0 -119 -348 0 c-298 0 -351
-2 -370 -16 -21 -15 -22 -21 -22 -185 0 -98 4 -178 10 -190 10 -18 26 -19 500
-19 l490 0 0 -135 0 -135 -730 0 -730 0 0 45 c0 42 6 53 73 133 87 105 157
209 195 288 35 77 37 192 4 267 -82 183 -309 265 -485 175 -130 -66 -216 -229
-188 -358 21 -97 110 -243 244 -399 l47 -55 0 -86 c0 -71 3 -90 18 -103 17
-16 89 -17 825 -17 719 0 807 2 821 16 14 13 16 48 16 229 0 210 0 214 -22
229 -20 14 -84 16 -500 16 l-478 0 0 95 0 95 354 0 c309 0 357 2 370 16 22 22
24 400 2 430 -12 16 -29 20 -115 22 l-101 4 0 53 c0 49 4 57 60 126 83 101
130 197 130 263 0 92 -55 177 -143 223 -45 23 -143 26 -196 6z m147 -107 c76
-40 100 -113 62 -189 -12 -24 -44 -72 -70 -106 l-48 -63 -46 59 c-71 90 -100
152 -92 195 17 90 117 144 194 104z m-1079 -777 c101 -21 178 -108 187 -211 5
-46 1 -63 -29 -123 -31 -64 -166 -255 -200 -283 -11 -10 -23 0 -64 51 -140
172 -200 288 -187 361 16 101 91 183 189 207 43 10 49 10 104 -2z"/>
<path d="M1402 1714 c-46 -32 -18 -114 39 -114 28 0 62 34 62 63 0 56 -54 84
-101 51z"/>
<path d="M304 932 c-100 -47 -125 -167 -51 -246 99 -105 267 -38 267 107 0
110 -117 185 -216 139z m87 -102 c28 -16 26 -68 -3 -79 -47 -18 -85 33 -52 70
20 22 28 23 55 9z"/>
</g>
</svg>
